<?xml version="1.0" encoding="UTF-8"?><svg id="_イヤー_2" xmlns="http://www.w3.org/2000/svg" viewBox="0 0 149.67 149.97"><defs><style>.cls-1{fill:#666;}.cls-2{fill:#cda4d4;}.cls-3{fill:#4d4d4d;}</style></defs><g id="about"><g><g><path class="cls-2" d="M139.67,74.96v.15c0,.94-.02,1.88-.06,2.82l9.99,.42c.05-1.08,.07-2.16,.07-3.24v-.18l-10,.02Z"/><path class="cls-2" d="M136.1,53.78c.31,.88,.59,1.78,.86,2.68l9.58-2.85c-.31-1.04-.64-2.07-.99-3.09l-9.45,3.27h0Z"/><path class="cls-2" d="M125.82,34.91c.58,.74,1.14,1.49,1.69,2.25l8.13-5.82c-.63-.88-1.28-1.75-1.94-2.6l-7.87,6.16Z"/><path class="cls-2" d="M109.98,20.38c.79,.51,1.56,1.04,2.33,1.59l5.82-8.13c-.88-.63-1.77-1.24-2.68-1.83l-5.46,8.38Z"/><path class="cls-2" d="M90.3,11.78c.91,.23,1.82,.48,2.71,.74l2.85-9.59c-1.04-.31-2.08-.59-3.13-.86l-2.43,9.7h0Z"/><path class="cls-2" d="M68.97,10.22c.94-.1,1.89-.18,2.86-.25l-.7-9.98c-1.07,.07-2.13,.17-3.18,.27l1.02,9.95h0Z"/><path class="cls-1" d="M47.92,15.43c.86-.36,1.73-.7,2.62-1.03l-3.46-9.38c-1.02,.38-2.03,.77-3.02,1.18l3.85,9.23Z"/><path class="cls-1" d="M29.87,26.9c.68-.63,1.39-1.24,2.1-1.84l-6.41-7.67c-.84,.7-1.66,1.42-2.45,2.15l6.76,7.37h0Z"/><path class="cls-1" d="M16.92,43.9c.43-.83,.88-1.65,1.34-2.46l-8.67-4.99c-.54,.94-1.06,1.89-1.56,2.85l8.88,4.6h0Z"/><path class="cls-1" d="M10.29,64.38c.14-.93,.31-1.86,.49-2.78l-9.81-1.93c-.21,1.06-.4,2.12-.56,3.19l9.88,1.53h0Z"/><path class="cls-1" d="M10.32,85.99c-.15-.93-.27-1.87-.38-2.8l-9.93,1.15c.12,1.07,.27,2.14,.44,3.2l9.88-1.55h0Z"/><path class="cls-2" d="M17,106.45c-.43-.83-.85-1.67-1.24-2.52l-9.06,4.22c.46,.98,.94,1.95,1.44,2.92l8.87-4.62h0Z"/><path class="cls-2" d="M29.99,123.43c-.69-.63-1.36-1.28-2.02-1.93l-7.08,7.06c.77,.77,1.55,1.52,2.36,2.26l6.75-7.38h0Z"/><path class="cls-2" d="M48.06,134.86c-.87-.36-1.73-.74-2.58-1.13l-4.22,9.06c.97,.45,1.96,.89,2.97,1.31l3.83-9.24h0Z"/><path class="cls-2" d="M69.13,140.02c-.96-.1-1.91-.21-2.84-.34l-1.34,9.91c1.05,.14,2.11,.27,3.18,.38l1.01-9.95h0Z"/><path class="cls-2" d="M90.44,138.41c-.91,.23-1.82,.44-2.74,.63l2.03,9.79c1.06-.22,2.12-.46,3.17-.73l-2.45-9.69h0Z"/><path class="cls-2" d="M110.1,129.77c-.78,.51-1.58,1.01-2.38,1.49l5.11,8.59c.93-.55,1.85-1.13,2.75-1.72l-5.48-8.37h0Z"/><path class="cls-2" d="M125.91,115.21c-.58,.74-1.17,1.47-1.78,2.18l7.62,6.48c.7-.82,1.38-1.66,2.05-2.52l-7.89-6.15h0Z"/><path class="cls-2" d="M136.15,96.31c-.31,.89-.63,1.77-.97,2.65l9.31,3.65c.4-1.01,.77-2.03,1.12-3.06l-9.46-3.25h0Z"/></g><g><path class="cls-3" d="M56.37,88.91l9.6-27.6h5.36l9.6,27.6h-5.96l-1.68-5.24h-9.24l-1.68,5.24h-6Zm9.16-9.96h6.24l-3.12-9.72-3.12,9.72Z"/><path class="cls-3" d="M87.25,61.32h5.52v4.96h-5.52v-4.96Zm.2,7.6h5.12v20h-5.12v-20Z"/></g></g></g></svg>